<svg width="28" height="28" viewBox="0 0 28 28" fill="none" xmlns="http://www.w3.org/2000/svg">
<path d="M12.6667 0.666626C19.2907 0.666626 24.6667 6.04263 24.6667 12.6666C24.6667 19.2906 19.2907 24.6666 12.6667 24.6666C6.04275 24.6666 0.666748 19.2906 0.666748 12.6666C0.666748 6.04263 6.04275 0.666626 12.6667 0.666626ZM12.6667 22C17.8227 22 22.0001 17.8226 22.0001 12.6666C22.0001 7.50929 17.8227 3.33329 12.6667 3.33329C7.50941 3.33329 3.33341 7.50929 3.33341 12.6666C3.33341 17.8226 7.50941 22 12.6667 22ZM23.9801 22.0946L27.7521 25.8653L25.8654 27.752L22.0947 23.98L23.9801 22.0946V22.0946Z" fill="#D8A788"/>
</svg>
