<svg width="22" height="29" viewBox="0 0 22 29" fill="none" xmlns="http://www.w3.org/2000/svg">
<path d="M21.6666 28.3334H18.9999V25.6667C18.9999 24.6058 18.5785 23.5884 17.8283 22.8383C17.0782 22.0881 16.0608 21.6667 14.9999 21.6667H6.99992C5.93905 21.6667 4.92164 22.0881 4.17149 22.8383C3.42135 23.5884 2.99992 24.6058 2.99992 25.6667V28.3334H0.333252V25.6667C0.333252 23.8986 1.03563 22.2029 2.28587 20.9527C3.53612 19.7024 5.23181 19 6.99992 19H14.9999C16.768 19 18.4637 19.7024 19.714 20.9527C20.9642 22.2029 21.6666 23.8986 21.6666 25.6667V28.3334ZM10.9999 16.3334C9.94934 16.3334 8.90906 16.1264 7.93845 15.7244C6.96785 15.3224 6.08593 14.7331 5.34306 13.9902C4.6002 13.2474 4.01092 12.3654 3.60888 11.3948C3.20684 10.4242 2.99992 9.38395 2.99992 8.33337C2.99992 7.2828 3.20684 6.24251 3.60888 5.27191C4.01092 4.3013 4.6002 3.41939 5.34306 2.67652C6.08593 1.93365 6.96785 1.34438 7.93845 0.942338C8.90906 0.5403 9.94934 0.333374 10.9999 0.333374C13.1216 0.333374 15.1565 1.17623 16.6568 2.67652C18.1571 4.17681 18.9999 6.21164 18.9999 8.33337C18.9999 10.4551 18.1571 12.4899 16.6568 13.9902C15.1565 15.4905 13.1216 16.3334 10.9999 16.3334V16.3334ZM10.9999 13.6667C12.4144 13.6667 13.771 13.1048 14.7712 12.1046C15.7713 11.1044 16.3333 9.74786 16.3333 8.33337C16.3333 6.91889 15.7713 5.56233 14.7712 4.56214C13.771 3.56194 12.4144 3.00004 10.9999 3.00004C9.58543 3.00004 8.22888 3.56194 7.22868 4.56214C6.22849 5.56233 5.66658 6.91889 5.66658 8.33337C5.66658 9.74786 6.22849 11.1044 7.22868 12.1046C8.22888 13.1048 9.58543 13.6667 10.9999 13.6667V13.6667Z" fill="#D8A788"/>
</svg>
