<svg width="28" height="25" viewBox="0 0 28 25" fill="none" xmlns="http://www.w3.org/2000/svg">
<path d="M14.0014 2.03864C17.1334 -0.77336 21.9734 -0.680027 24.9908 2.34264C28.0068 5.36664 28.1108 10.1826 25.3054 13.324L13.9988 24.6466L2.69476 13.324C-0.110577 10.1826 -0.00524364 5.35864 3.00942 2.34264C6.02942 -0.676027 10.8601 -0.77736 14.0014 2.03864V2.03864ZM23.1028 4.22664C21.1028 2.22397 17.8761 2.14264 15.7828 4.02264L14.0028 5.61997L12.2214 4.02397C10.1214 2.14131 6.90142 2.22397 4.89609 4.22931C2.90942 6.21597 2.80942 9.39597 4.64009 11.4973L14.0001 20.872L23.3601 11.4986C25.1921 9.39597 25.0921 6.21997 23.1028 4.22664V4.22664Z" fill="white"/>
</svg>
