<svg width="12" height="18" viewBox="0 0 12 18" fill="none" xmlns="http://www.w3.org/2000/svg">
<path d="M11.0003 9.70236L2.99006 17.7124C2.8048 17.8979 2.55748 18 2.29378 18C2.03007 18 1.78276 17.8979 1.59749 17.7124L1.00759 17.1227C0.623742 16.7384 0.623742 16.1138 1.00759 15.7301L7.73398 9.00373L1.00013 2.26988C0.814862 2.08447 0.71257 1.8373 0.71257 1.57374C0.71257 1.30989 0.814862 1.06272 1.00013 0.877163L1.59003 0.287558C1.77544 0.102144 2.02261 0 2.28631 0C2.55002 0 2.79733 0.102144 2.9826 0.287558L11.0003 8.30496C11.186 8.49096 11.288 8.73929 11.2874 9.00329C11.288 9.26831 11.186 9.51651 11.0003 9.70236Z" fill="white"/>
</svg>
