<svg width="51" height="41" viewBox="0 0 51 41" fill="none" xmlns="http://www.w3.org/2000/svg">
<path d="M32.7566 6.1014V3.34167" stroke="#D8A688" stroke-width="3" stroke-miterlimit="10" stroke-linecap="round" stroke-linejoin="round"/>
<path d="M15.7012 19.5121L5.67065 17.9283L15.7012 16.3445C16.5763 16.206 17.396 16.8038 17.5346 17.6789C17.6732 18.5539 17.0753 19.3735 16.2001 19.5121C16.0338 19.5398 15.8596 19.5359 15.7012 19.5121Z" fill="#D8A688"/>
<path d="M14.9092 24.2952L0 22.7114L14.9092 21.1276C15.7843 21.0365 16.5684 21.67 16.6594 22.5451C16.7505 23.4201 16.1169 24.2041 15.2458 24.2952C15.1349 24.307 15.0161 24.307 14.9092 24.2952Z" fill="#D8A688"/>
<path d="M15.7011 29.2127L7.53174 27.6289L15.7011 26.0452C16.5762 25.8749 17.4237 26.449 17.5939 27.3201C17.7642 28.1951 17.19 29.0425 16.3188 29.2127C16.109 29.2523 15.8951 29.2484 15.7011 29.2127Z" fill="#D8A688"/>
<path d="M49.4161 22.7588C49.4161 31.9566 41.9595 39.4162 32.7566 39.4162C23.5537 39.4162 16.0972 31.9566 16.0972 22.7588C16.0972 13.561 23.5537 6.10144 32.7566 6.10144C41.9595 6.10144 49.4161 13.5571 49.4161 22.7588Z" stroke="#D8A688" stroke-width="3" stroke-miterlimit="10" stroke-linecap="round" stroke-linejoin="round"/>
<path d="M42.6604 22.7589C42.6604 28.2269 38.2253 32.6614 32.7566 32.6614C27.2879 32.6614 22.8528 28.2269 22.8528 22.7589C22.8528 17.2909 27.2879 12.8563 32.7566 12.8563C38.2253 12.8524 42.6604 17.2869 42.6604 22.7589Z" fill="#FFE0AE"/>
<path d="M37.0412 1.58374H28.4719" stroke="#D8A688" stroke-width="3" stroke-miterlimit="10" stroke-linecap="round" stroke-linejoin="round"/>
<path d="M37.2078 15.6279L37.9047 14.5114" stroke="#090909" stroke-width="2" stroke-miterlimit="10" stroke-linecap="round" stroke-linejoin="round"/>
<path d="M28.4958 29.9888L27.7434 31.2083" stroke="#090909" stroke-width="2" stroke-miterlimit="10" stroke-linecap="round" stroke-linejoin="round"/>
<path d="M32.7567 14.4083C32.7567 14.4083 32.7369 14.3964 32.7052 14.3766C32.6735 14.3568 32.6141 14.3252 32.5626 14.2856C32.4517 14.2064 32.3131 14.0955 32.1864 13.9649C31.9369 13.6996 31.7627 13.3432 31.7667 12.9869C31.7627 12.6305 31.933 12.2742 32.1825 12.0089C32.3092 11.8743 32.4478 11.7634 32.5587 11.6882C32.6101 11.6486 32.6695 11.6169 32.7012 11.5971C32.7369 11.5773 32.7567 11.5654 32.7567 11.5654C32.7567 11.5654 32.7765 11.5773 32.8121 11.5971C32.8438 11.6169 32.9071 11.6486 32.9546 11.6882C33.0695 11.7674 33.2041 11.8782 33.3308 12.0089C33.5803 12.2742 33.7506 12.6305 33.7466 12.9869C33.7506 13.3432 33.5764 13.6996 33.3269 13.9649C33.2002 14.0995 33.0655 14.2103 32.9507 14.2856C32.9032 14.3252 32.8398 14.3568 32.8081 14.3766C32.7765 14.4004 32.7567 14.4083 32.7567 14.4083Z" fill="#090909"/>
<path d="M32.9507 31.2083C32.9507 31.2083 32.9705 31.2201 33.0022 31.2399C33.0339 31.2597 33.0933 31.2914 33.1448 31.331C33.2557 31.4102 33.3943 31.521 33.521 31.6517C33.7705 31.917 33.9447 32.2733 33.9407 32.6297C33.9447 32.986 33.7744 33.3424 33.5249 33.6077C33.3982 33.7423 33.2596 33.8532 33.1487 33.9284C33.0973 33.968 33.0379 33.9997 33.0062 34.0195C32.9705 34.0393 32.9507 34.0511 32.9507 34.0511C32.9507 34.0511 32.9309 34.0393 32.8953 34.0195C32.8636 33.9997 32.8003 33.968 32.7527 33.9284C32.6379 33.8492 32.5033 33.7383 32.3766 33.6077C32.1271 33.3424 31.9568 32.986 31.9608 32.6297C31.9568 32.2733 32.131 31.917 32.3805 31.6517C32.5072 31.5171 32.6419 31.4062 32.7567 31.331C32.8042 31.2914 32.8676 31.2597 32.8993 31.2399C32.9309 31.2162 32.9507 31.2083 32.9507 31.2083Z" fill="#090909"/>
<path d="M41.2507 22.7112C41.2507 22.7112 41.2626 22.6914 41.2824 22.6598C41.3022 22.6281 41.3339 22.5687 41.3735 22.5172C41.4527 22.4064 41.5636 22.2678 41.6942 22.1411C41.9596 21.8916 42.316 21.7174 42.6724 21.7214C43.0287 21.7174 43.3851 21.8877 43.6505 22.1371C43.7851 22.2638 43.896 22.4024 43.9712 22.5133C44.0108 22.5647 44.0425 22.6241 44.0623 22.6558C44.0821 22.6914 44.094 22.7112 44.094 22.7112C44.094 22.7112 44.0821 22.731 44.0623 22.7667C44.0425 22.7983 44.0108 22.8617 43.9712 22.9092C43.892 23.024 43.7811 23.1587 43.6505 23.2854C43.3851 23.5348 43.0287 23.7051 42.6724 23.7011C42.316 23.7051 41.9596 23.5308 41.6942 23.2814C41.5596 23.1547 41.4487 23.0201 41.3735 22.9053C41.3339 22.8577 41.3022 22.7944 41.2824 22.7627C41.2626 22.731 41.2507 22.7112 41.2507 22.7112Z" fill="#090909"/>
<path d="M24.4526 22.9052C24.4526 22.9052 24.4407 22.925 24.4209 22.9567C24.4011 22.9884 24.3694 23.0478 24.3298 23.0992C24.2507 23.2101 24.1398 23.3487 24.0091 23.4754C23.7438 23.7248 23.3874 23.899 23.031 23.8951C22.6746 23.899 22.3182 23.7288 22.0529 23.4793C21.9182 23.3526 21.8074 23.214 21.7321 23.1032C21.6925 23.0517 21.6609 22.9923 21.6411 22.9606C21.6213 22.925 21.6094 22.9052 21.6094 22.9052C21.6094 22.9052 21.6213 22.8854 21.6411 22.8498C21.6609 22.8181 21.6925 22.7548 21.7321 22.7072C21.8113 22.5924 21.9222 22.4578 22.0529 22.3311C22.3182 22.0816 22.6746 21.9114 23.031 21.9154C23.3874 21.9114 23.7438 22.0856 24.0091 22.3351C24.1437 22.4618 24.2546 22.5964 24.3298 22.7112C24.3694 22.7587 24.4011 22.8221 24.4209 22.8537C24.4407 22.8854 24.4526 22.9052 24.4526 22.9052Z" fill="#090909"/>
<path d="M40.0547 27.2408C40.0547 27.2408 40.1933 27.1735 40.3477 27.1577C40.5061 27.1339 40.6804 27.1656 40.8229 27.2527C40.9615 27.3398 41.0684 27.4784 41.1199 27.6328C41.1753 27.7793 41.1753 27.9337 41.1753 27.9337C41.1753 27.9337 41.0367 28.005 40.8823 28.0169C40.72 28.0406 40.5497 28.0089 40.4111 27.9218C40.2725 27.8347 40.1656 27.6922 40.118 27.5378C40.0547 27.3992 40.0547 27.2408 40.0547 27.2408Z" fill="#090909"/>
<path d="M25.692 18.5301C25.692 18.5301 25.5455 18.5974 25.3831 18.6053C25.2129 18.6251 25.0267 18.5855 24.8763 18.4905C24.7258 18.3954 24.603 18.2489 24.5476 18.0866C24.4842 17.9361 24.4763 17.7738 24.4763 17.7738C24.4763 17.7738 24.6228 17.7065 24.7852 17.6986C24.9555 17.6788 25.1416 17.7184 25.2921 17.8134C25.4425 17.9084 25.5613 18.0549 25.6207 18.2173C25.6841 18.3717 25.692 18.5301 25.692 18.5301Z" fill="#090909"/>
<path d="M39.9082 18.241C39.9082 18.241 39.9082 18.0866 39.9597 17.9401C40.0072 17.7857 40.1141 17.6431 40.2488 17.556C40.3874 17.4689 40.5616 17.4333 40.72 17.457C40.8744 17.4689 41.017 17.5402 41.017 17.5402C41.017 17.5402 41.0209 17.6985 40.9655 17.8411C40.918 17.9955 40.8111 18.138 40.6725 18.2252C40.5339 18.3123 40.3596 18.3479 40.2012 18.3241C40.0508 18.3083 39.9082 18.241 39.9082 18.241Z" fill="#090909"/>
<path d="M25.8345 27.411C25.8345 27.411 25.8306 27.5694 25.7672 27.7238C25.7118 27.8861 25.593 28.0326 25.4425 28.1316C25.292 28.2266 25.1059 28.2702 24.9356 28.2544C24.7733 28.2464 24.6228 28.1831 24.6228 28.1831C24.6228 28.1831 24.6268 28.0208 24.6901 27.8703C24.7456 27.708 24.8644 27.5615 25.0148 27.4625C25.1653 27.3674 25.3514 27.3239 25.5217 27.3397C25.688 27.3477 25.8345 27.411 25.8345 27.411Z" fill="#090909"/>
<path d="M37.4412 29.9412C37.4412 29.9412 37.5956 29.9412 37.7421 29.9926C37.8966 30.0401 38.0391 30.1471 38.1263 30.2817C38.2134 30.4203 38.249 30.5945 38.2252 30.7528C38.2134 30.9073 38.1421 31.0498 38.1421 31.0498C38.1421 31.0498 37.9877 31.0538 37.8411 30.9983C37.6867 30.9508 37.5441 30.8439 37.457 30.7053C37.3699 30.5668 37.3343 30.3925 37.358 30.2342C37.3739 30.0837 37.4412 29.9412 37.4412 29.9412Z" fill="#090909"/>
<path d="M28.27 15.8693C28.27 15.8693 28.1116 15.8653 27.9572 15.802C27.7948 15.7466 27.6483 15.6278 27.5493 15.4773C27.4542 15.3269 27.4107 15.1408 27.4265 14.9705C27.4344 14.8082 27.4978 14.6577 27.4978 14.6577C27.4978 14.6577 27.6562 14.6617 27.8106 14.725C27.973 14.7805 28.1195 14.8992 28.2185 15.0497C28.3136 15.2002 28.3571 15.3863 28.3413 15.5565C28.3334 15.7228 28.27 15.8693 28.27 15.8693Z" fill="#090909"/>
<path d="M38.146 14.1826L34.1148 22.9884C33.7941 23.6932 32.9625 24.002 32.2576 23.6774C31.5527 23.3566 31.2439 22.5252 31.5686 21.8204C31.624 21.6976 31.7032 21.5828 31.7864 21.4838L38.146 14.1826Z" fill="#D8A688"/>
<path d="M33.3991 25.1513C34.9941 24.7975 36.0002 23.2178 35.6464 21.6231C35.2925 20.0283 33.7127 19.0223 32.1177 19.3761C30.5227 19.7299 29.5166 21.3095 29.8705 22.9043C30.2243 24.4991 31.8042 25.5051 33.3991 25.1513Z" fill="#D8A688"/>
</svg>
